<?xml version="1.0" encoding="UTF-8" standalone="no"?>
<!-- Created with Inkscape (http://www.inkscape.org/) -->

<svg
   width="210mm"
   height="297mm"
   viewBox="0 0 210 297"
   version="1.1"
   id="svg1"
   inkscape:version="1.3.2 (091e20e, 2023-11-25, custom)"
   sodipodi:docname="Character1_v001.svg"
   xmlns:inkscape="http://www.inkscape.org/namespaces/inkscape"
   xmlns:sodipodi="http://sodipodi.sourceforge.net/DTD/sodipodi-0.dtd"
   xmlns="http://www.w3.org/2000/svg"
   xmlns:svg="http://www.w3.org/2000/svg">
  <sodipodi:namedview
     id="namedview1"
     pagecolor="#ffffff"
     bordercolor="#000000"
     borderopacity="0.25"
     inkscape:showpageshadow="2"
     inkscape:pageopacity="0.0"
     inkscape:pagecheckerboard="0"
     inkscape:deskcolor="#d1d1d1"
     inkscape:document-units="mm"
     inkscape:zoom="0.56390993"
     inkscape:cx="464.6132"
     inkscape:cy="488.5532"
     inkscape:window-width="1600"
     inkscape:window-height="829"
     inkscape:window-x="-8"
     inkscape:window-y="-8"
     inkscape:window-maximized="1"
     inkscape:current-layer="layer1" />
  <defs
     id="defs1" />
  <g
     inkscape:label="Layer 1"
     inkscape:groupmode="layer"
     id="layer1">
    <ellipse
       style="fill:#666666;stroke-width:0.332129"
       id="ellipse4"
       cx="126.91707"
       cy="177.59006"
       rx="33.078197"
       ry="18.06398" />
    <path
       style="fill:#666666;stroke-width:0.264583"
       d="m 144.91366,99.469191 c 0,0 21.11374,-3.28436 19.70616,-36.127961 -1.40759,-32.843599 0,0.93839 0,0.93839 0,0 -20.64455,-1.876777 -30.49763,29.090048"
       id="path3" />
    <ellipse
       style="fill:#999999;stroke-width:0.264583"
       id="path1"
       cx="104.39574"
       cy="133.25119"
       rx="61.699051"
       ry="52.549763" />
    <path
       style="fill:#666666;stroke-width:0.264583"
       d="m 64.748814,104.63033 c 0,0 -21.113744,-3.28436 -19.706161,-36.127962 1.407583,-32.843599 0,0.93839 0,0.93839 0,0 20.644551,-1.876777 30.497631,29.090048"
       id="path2" />
    <ellipse
       style="fill:#666666;stroke-width:0.332129"
       id="path4"
       cx="67.798576"
       cy="187.91234"
       rx="33.078197"
       ry="18.06398" />
    <ellipse
       style="fill:#666666;stroke-width:0.264583"
       id="path5"
       cx="112.13744"
       cy="121.99052"
       rx="15.014217"
       ry="12.199053" />
    <ellipse
       style="fill:#666666;stroke-width:0.264583"
       id="ellipse5"
       cx="148.26541"
       cy="121.99052"
       rx="15.014217"
       ry="12.199053" />
    <ellipse
       style="fill:#4d4d4d;stroke-width:0.135279"
       id="ellipse6"
       cx="152.48816"
       cy="123.1635"
       rx="7.0379143"
       ry="6.803318" />
    <ellipse
       style="fill:#4d4d4d;stroke-width:0.135279"
       id="ellipse7"
       cx="115.89101"
       cy="123.1635"
       rx="7.0379143"
       ry="6.803318" />
    <path
       style="fill:#4d4d4d;stroke-width:0.264583"
       d="m 75.071088,144.51185 27.213272,15.01421 12.66824,-11.26066 15.01422,9.85308 7.97631,-5.63033 7.9763,5.63033 12.66825,-8.91469 -11.86219,5.23537 -8.9578,-6.63541 -7.71366,6.13775 -14.97114,-9.95312 -13.41597,9.95312 -24.032631,-9.62134"
       id="path7"
       sodipodi:nodetypes="ccccccccccccc" />
  </g>
</svg>
